<svg width="33" height="33" viewBox="0 0 33 33" fill="none" xmlns="http://www.w3.org/2000/svg">
<circle cx="16.5802" cy="16.5352" r="16" fill="#262626"/>
<path fill-rule="evenodd" clip-rule="evenodd" d="M22.9035 14.5338H22.9458C23.2962 14.5338 23.5802 14.8197 23.5802 15.1724V18.0674C23.5802 18.4201 23.2962 18.706 22.9458 18.706H22.9035V19.8129C22.9035 21.3412 21.6726 22.5802 20.1542 22.5802H13.0062C11.4878 22.5802 10.2569 21.3412 10.2569 19.8129V18.706H10.2146C9.86425 18.706 9.5802 18.4201 9.5802 18.0674V15.1724C9.5802 14.8197 9.86425 14.5338 10.2146 14.5338H10.2569V13.2565C10.2569 11.7282 11.4878 10.4893 13.0062 10.4893H20.1542C21.6726 10.4893 22.9035 11.7282 22.9035 13.2565V14.5338ZM15.9689 16.1917L13.5979 13.8106L12.8811 14.5338L14.4865 16.1941L12.8793 17.8538L13.602 18.5796L15.9689 16.1917ZM17.1935 16.1917L19.5645 13.8106L20.2813 14.5338L18.6758 16.1941L20.2831 17.8538L19.5603 18.5796L17.1935 16.1917Z" fill="#DCDCE2"/>
</svg>
