<svg width="33" height="33" viewBox="0 0 33 33" fill="none" xmlns="http://www.w3.org/2000/svg">
<circle cx="16.5803" cy="16.1504" r="16" fill="#20CE70" fill-opacity="0.07"/>
<path d="M23.2619 12.8777C23.2619 13.578 23.0089 14.1773 22.5031 14.6756C21.9972 15.174 21.3789 15.4231 20.6483 15.4231C19.9176 15.4231 19.2923 15.174 18.7724 14.6756C18.2525 14.1773 17.9925 13.578 17.9925 12.8777C17.9925 12.1773 18.2525 11.578 18.7724 11.0797C19.2923 10.5814 19.9176 10.3322 20.6483 10.3322C21.3789 10.3322 21.9972 10.5814 22.5031 11.0797C23.0089 11.578 23.2619 12.1773 23.2619 12.8777ZM7.58035 20.9585V16.514L10.3204 17.5645C10.8825 17.2413 11.5148 17.0797 12.2174 17.0797H12.5967L15.674 12.8373C15.674 11.5443 16.1588 10.44 17.1284 9.52413C18.0979 8.6083 19.2572 8.15039 20.6061 8.15039C21.9832 8.15039 23.1565 8.61504 24.126 9.54433C25.0956 10.4736 25.5804 11.5915 25.5804 12.8979C25.5804 14.2043 25.0956 15.3221 24.126 16.2514C23.1565 17.1807 21.9832 17.6453 20.6061 17.6453L15.8848 20.9585C15.8005 21.8743 15.4071 22.6352 14.7045 23.2413C14.0019 23.8474 13.1729 24.1504 12.2174 24.1504C11.3181 24.1504 10.5312 23.8878 9.8567 23.3625C9.18223 22.8373 8.76068 22.1706 8.59206 21.3625L7.58035 20.9585ZM20.6272 9.68574C19.7138 9.68574 18.934 10.0022 18.2876 10.6352C17.6412 11.2682 17.3181 12.0224 17.3181 12.8979C17.3181 13.7733 17.6412 14.5208 18.2876 15.1403C18.934 15.7598 19.7138 16.0696 20.6272 16.0696C21.5405 16.0696 22.3204 15.7598 22.9668 15.1403C23.6131 14.5208 23.9363 13.7733 23.9363 12.8979C23.9363 12.0224 23.6131 11.2682 22.9668 10.6352C22.3204 10.0022 21.5405 9.68574 20.6272 9.68574ZM12.2174 18.009C12.0206 18.009 11.8239 18.0359 11.6272 18.0898L12.7654 18.4938C13.2993 18.7093 13.6857 19.0797 13.9246 19.6049C14.1635 20.1302 14.1705 20.6622 13.9457 21.2009C13.7209 21.7396 13.3345 22.1167 12.7864 22.3322C12.2384 22.5477 11.6834 22.5612 11.1213 22.3726C10.9527 22.2918 10.7209 22.1908 10.4258 22.0696C10.1307 21.9484 9.92696 21.8743 9.81454 21.8474C10.3204 22.7632 11.1213 23.2211 12.2174 23.2211C12.948 23.2211 13.5804 22.9652 14.1143 22.4534C14.6483 21.9416 14.9152 21.3288 14.9152 20.615C14.9152 19.9012 14.6483 19.2884 14.1143 18.7767C13.5804 18.2649 12.948 18.009 12.2174 18.009Z" fill="white"/>
</svg>
