<svg width="33" height="33" viewBox="0 0 33 33" fill="none" xmlns="http://www.w3.org/2000/svg">
<circle cx="16.5803" cy="16.9473" r="16" fill="#262626"/>
<path d="M20.5297 21.3975C20.833 20.8636 20.9847 20.2934 20.9847 19.6867C20.9847 18.8859 20.8088 18.261 20.4569 17.8121C20.105 17.351 19.6743 17.0174 19.1647 16.8111C18.6551 16.5927 17.9938 16.3864 17.1809 16.1923L15.9979 15.8829C15.4519 15.713 15.0272 15.4886 14.7239 15.2095C14.4327 14.9304 14.2871 14.5422 14.2871 14.0447C14.2871 13.5108 14.4388 13.0862 14.7421 12.7707C15.0576 12.4552 15.4633 12.2692 15.9979 12.18C16.4547 12.1039 16.7394 12.1214 17.1809 12.2611C17.6249 12.4015 17.8986 12.5251 18.2001 12.8799C18.4763 13.2049 18.6005 13.5048 18.6369 13.8809H20.8573C20.7724 12.8738 20.4023 12.0852 19.7471 11.5149C19.104 10.9325 18.2486 10.5928 17.1809 10.4957V9.02148H15.9979V10.4957C14.8574 10.6049 13.9352 10.9932 13.2315 11.6605C12.5278 12.3157 12.1759 13.1468 12.1759 14.1539C12.1759 14.9547 12.3518 15.5856 12.7037 16.0467C13.0677 16.5078 13.5045 16.8475 14.0141 17.0659C14.5237 17.2722 15.185 17.4784 15.9979 17.6847L17.1809 17.9941C17.7269 18.164 18.1455 18.3884 18.4367 18.6675C18.74 18.9344 18.8917 19.3106 18.8917 19.7959C18.8917 20.2812 18.74 20.6998 18.4367 21.0517C18.1334 21.3914 17.7148 21.6038 17.1809 21.6887C16.8037 21.7836 16.2351 21.7282 15.9979 21.6887C15.5004 21.6038 15.1182 21.4096 14.8513 21.1063C14.5844 20.7908 14.4327 20.3965 14.3963 19.9233H12.1759C12.1759 20.9182 12.5278 21.719 13.2315 22.3257C13.9352 22.9324 14.8574 23.2903 15.9979 23.3995V24.8737H17.1809V23.3995C17.9696 23.3267 18.649 23.1083 19.2193 22.7443C19.8017 22.3803 20.2385 21.9314 20.5297 21.3975Z" fill="#DCDCE2"/>
</svg>
