<svg width="33" height="33" viewBox="0 0 33 33" fill="none" xmlns="http://www.w3.org/2000/svg">
<circle cx="16.5803" cy="16.7744" r="16" fill="#262626"/>
<g clip-path="url(#clip0_2_281)">
<path d="M22.6541 17.5744C22.6882 17.3192 22.7052 17.0555 22.7052 16.7748C22.7052 16.5026 22.6882 16.2304 22.6456 15.9752L24.3725 14.6311C24.5256 14.512 24.5682 14.2823 24.4746 14.1122L22.8413 11.2879C22.7392 11.1008 22.5265 11.0412 22.3394 11.1008L20.3063 11.9174C19.8809 11.5942 19.4301 11.3219 18.9282 11.1178L18.6219 8.95705C18.5879 8.75289 18.4178 8.60828 18.2136 8.60828H14.947C14.7428 8.60828 14.5812 8.75289 14.5472 8.95705L14.2409 11.1178C13.739 11.3219 13.2797 11.6027 12.8628 11.9174L10.8297 11.1008C10.6426 11.0327 10.4299 11.1008 10.3278 11.2879L8.70301 14.1122C8.60093 14.2908 8.63496 14.512 8.80509 14.6311L10.532 15.9752C10.4894 16.2304 10.4554 16.5111 10.4554 16.7748C10.4554 17.0385 10.4724 17.3192 10.515 17.5744L8.78808 18.9185C8.63496 19.0376 8.59242 19.2673 8.686 19.4374L10.3193 22.2617C10.4214 22.4488 10.6341 22.5084 10.8212 22.4488L12.8543 21.6322C13.2797 21.9554 13.7305 22.2276 14.2324 22.4318L14.5387 24.5925C14.5812 24.7967 14.7428 24.9413 14.947 24.9413H18.2136C18.4178 24.9413 18.5879 24.7967 18.6134 24.5925L18.9197 22.4318C19.4216 22.2276 19.8809 21.9554 20.2978 21.6322L22.3309 22.4488C22.518 22.5169 22.7307 22.4488 22.8328 22.2617L24.4661 19.4374C24.5682 19.2503 24.5256 19.0376 24.364 18.9185L22.6541 17.5744ZM16.5803 19.8372C14.896 19.8372 13.5179 18.4591 13.5179 16.7748C13.5179 15.0904 14.896 13.7123 16.5803 13.7123C18.2646 13.7123 19.6427 15.0904 19.6427 16.7748C19.6427 18.4591 18.2646 19.8372 16.5803 19.8372Z" fill="#DCDCE2"/>
</g>
<defs>
<clipPath id="clip0_2_281">
<rect width="24" height="24" fill="white" transform="translate(4.58032 4.77441)"/>
</clipPath>
</defs>
</svg>
