<svg width="33" height="33" viewBox="0 0 33 33" fill="none" xmlns="http://www.w3.org/2000/svg">
<circle cx="16.5802" cy="16.9824" r="16" fill="#262626"/>
<g clip-path="url(#clip0_2_305)">
<path fill-rule="evenodd" clip-rule="evenodd" d="M7.51117 14.2521C7.51117 13.7799 7.89399 13.397 8.36629 13.397V13.3965H10.3334C10.9263 13.3965 11.4317 13.499 11.8488 13.704C12.2662 13.909 12.5773 14.1908 12.7824 14.5496C12.9946 14.9083 13.1008 15.3146 13.1008 15.7685C13.1008 16.1785 13.0019 16.5628 12.8044 16.9216C12.6139 17.2803 12.3101 17.5695 11.8928 17.7891C11.4828 18.0088 10.9632 18.1185 10.3334 18.1185H9.04858V20.3829C9.04858 20.8074 8.70438 21.1516 8.27979 21.1516C7.85538 21.1516 7.51117 20.8074 7.51117 20.3829V14.2521ZM10.2676 16.8777C10.6922 16.8777 11.0069 16.7825 11.2119 16.5922C11.4169 16.3945 11.5193 16.1199 11.5193 15.7685C11.5193 15.0218 11.1022 14.6484 10.2676 14.6484H9.04858V16.8777H10.2676Z" fill="white"/>
<path fill-rule="evenodd" clip-rule="evenodd" d="M13.866 17.9693C13.866 17.3544 13.9868 16.809 14.2284 16.3331C14.4773 15.8572 14.8104 15.4912 15.2277 15.2349C15.6523 14.9787 16.1245 14.8506 16.6444 14.8506C17.0982 14.8506 17.4935 14.9421 17.8304 15.1251C18.1744 15.3081 18.4605 15.5388 18.6655 15.817V15.7093C18.6655 15.2847 19.0097 14.9406 19.4343 14.9406C19.8587 14.9406 20.2029 15.2847 20.2029 15.7093V20.3819C20.2029 20.8064 19.8587 21.1506 19.4341 21.1506C19.0097 21.1506 18.6655 20.8064 18.6655 20.3819V20.1437C18.4678 20.4292 18.1818 20.6671 17.8304 20.8575C17.4862 21.0405 17.0872 21.132 16.6334 21.132C16.1208 21.132 15.6523 21.0002 15.2277 20.7367C14.8104 20.4731 14.4773 20.1034 14.2284 19.6276C13.9868 19.1444 13.866 18.5916 13.866 17.9693ZM18.4343 17.0359C18.5807 17.2995 18.6539 17.6179 18.6539 17.9913C18.6539 18.3647 18.5807 18.6868 18.4343 18.9577C18.2878 19.2212 18.0901 19.4262 17.8413 19.5726C17.5924 19.7117 17.3251 19.7813 17.0396 19.7813C16.7614 19.7813 16.4978 19.7081 16.2489 19.5617C16.0073 19.4152 15.8097 19.2066 15.6559 18.9357C15.5095 18.6575 15.4363 18.3354 15.4363 17.9693C15.4363 17.6033 15.5095 17.2885 15.6559 17.0249C15.8097 16.754 16.0073 16.5491 16.2489 16.41C16.4905 16.2708 16.7541 16.2013 17.0396 16.2013C17.3251 16.2013 17.5924 16.2745 17.8413 16.4209C18.0901 16.56 18.2878 16.765 18.4343 17.0359Z" fill="white"/>
<path d="M26.5378 14.9858C26.1406 14.8357 25.6969 14.9866 25.5469 15.3837L24.2264 19.2278L22.8164 15.4254C22.6667 15.0281 22.2229 14.8276 21.8251 14.9774C21.4274 15.1272 21.2264 15.5708 21.376 15.9681L23.3698 20.908L22.4982 22.952C22.3406 23.3462 22.5305 23.7881 22.9071 23.9387C23.2836 24.0892 23.7167 23.8917 23.8742 23.4975L26.9538 15.9247C27.1039 15.5275 26.9348 15.1359 26.5378 14.9858Z" fill="white"/>
</g>
<defs>
<clipPath id="clip0_2_305">
<rect width="20" height="11" fill="white" transform="translate(7.12885 13.3203)"/>
</clipPath>
</defs>
</svg>
